<svg id="Layer_1" data-name="Layer 1" xmlns="http://www.w3.org/2000/svg" viewBox="0 0 410.86 574.33"><defs><style>.cls-1{fill:#872333;}.cls-2,.cls-5{fill:#262626;}.cls-3{fill:#be9d46;}.cls-10,.cls-4,.cls-7,.cls-8{fill:#fff;}.cls-4{stroke:#000;}.cls-4,.cls-5{stroke-miterlimit:10;}.cls-5{stroke:#262626;}.cls-6{fill:#ff9c8e;}.cls-8{font-size:40px;}.cls-10,.cls-8{font-family:Futura-Medium, Futura;font-weight:500;}.cls-9{letter-spacing:-0.01em;}.cls-10{font-size:30px;}.cls-11{letter-spacing:0.03em;}</style></defs><path class="cls-1" d="M379.45,66.75h2.16c6.71,0,21.89,0,57,0,52.33-.07,83.11-.19,100.16-.21,0,0,16.18,0,30.81-.06h3.26l17.64,0,10.68,0h5.21a7.12,7.12,0,0,1,2.34.7A7.48,7.48,0,0,1,610,68a7.28,7.28,0,0,1,1.12,1.12,5,5,0,0,1,.84,1.21,3.66,3.66,0,0,1,.31,1.69q-.21,49.56-.1,99.14.12,56.82.66,113.62v313.1c-.22,16.64-.25,22.92-.22,25.32,0,.55,0,3,0,6.38,0,1.33,0,2.4-.05,3l-.09,2.2a5.94,5.94,0,0,1-.27,1.74,5.07,5.07,0,0,1-2.09,2.91,4.55,4.55,0,0,1-2.54.66l-2.89,0c-6.25.08-15.65.18-27.08.22-18.61.07-46.68-.22-46.68-.22-36.57-.45-73.79.22-143,.52-23.88.1-59.2.19-102.73.06l-56.27-.08H213.32c-1.48,0-2.47.07-4.45,0a10.57,10.57,0,0,1-1.78-.2,10.69,10.69,0,0,1-2.4-.77l-.22-.11a4.74,4.74,0,0,1-1.9-1.77,4.61,4.61,0,0,1-.64-2v-4.21l.33-48.56-.33-110.64.33-139.7V172.76l-.12-6.64a8.26,8.26,0,0,1,0-1.26,7.91,7.91,0,0,1,.68-2.62,7.44,7.44,0,0,1,2-2.49c1.5-1.27,3.27-2.66,3.63-2.95l21-16.07Q239.5,133,249.6,125.09q8.68-6.77,17.28-13.54c17.68-13.9,31.68-24.73,38.34-29.91l15-11.65,3.46-2.5a8,8,0,0,1,1.63-.67,8.84,8.84,0,0,1,1.85-.34C340.82,66.58,358.28,66.69,379.45,66.75Z" transform="translate(-201.93 -66.42)"/><rect class="cls-2" x="72.74" y="271.73" width="267.48" height="245.58" rx="23.31"/><path class="cls-3" d="M417.16,350.12c-64.83.14-109.13.23-110.59.22l-1.4,0c-.83,0-1.63,0-2.57.14a22.34,22.34,0,0,0-2.47.45,22.7,22.7,0,0,0-5.28,2,18.81,18.81,0,0,0-3.64,3c-3.71,4-3.9,12.49-4,16.78-.13,9.78-.16,16.84-.16,21l30.38,0V382.71a12.76,12.76,0,0,1-3.63-3,10.81,10.81,0,0,1-2.48-4.79,10.2,10.2,0,0,1,.33-5.45,10.64,10.64,0,0,1,2.71-4.14,10.93,10.93,0,0,1,3.8-2.36,11.43,11.43,0,0,1,4-.66,10.85,10.85,0,0,1,3.9.55,9.83,9.83,0,0,1,3.2,1.85,10.44,10.44,0,0,1,2.48,3.17,10.7,10.7,0,0,1,1.16,4.67,9.31,9.31,0,0,1-.87,4.29,9.15,9.15,0,0,1-1.57,2.27,11.14,11.14,0,0,1-2.59,2.08,14.25,14.25,0,0,1-2.16,1.1q0,8.21,0,16.39,7.44,14,14.87,28l22.1,0c.61-1,1.16-1.85,1.64-2.59.66-1,1.16-1.77,1.54-2.34,1-1.53,1.45-2.12,1.59-2.32.39-.54.65-.87,1.17-1.54.16-.2.46-.58.88-1a4.31,4.31,0,0,1,.82-.76,3.71,3.71,0,0,1,1-.44,5.81,5.81,0,0,1,1.36-.13c.38,0,.53,0,1.28,0h1.08c-.07-.55-.17-1.33-.28-2.28-.15-1.27-.22-1.91-.29-2.68s-.14-1.65-.16-2.81a27.57,27.57,0,0,1,.08-3.05,13.79,13.79,0,0,1,3.38-7.39,11.56,11.56,0,0,1,7.52-3.51,17.17,17.17,0,0,1,1.15-8.07,14.07,14.07,0,0,1,2.81-4.4,13.74,13.74,0,0,1,5.1-3.34,17.63,17.63,0,0,1,5.55-.91,31.25,31.25,0,0,1,4.54,0,11.9,11.9,0,0,1,1.74-3.51,8.32,8.32,0,0,1,1.55-1.69,8.71,8.71,0,0,1,2.14-1.24,16.54,16.54,0,0,1,2.83-1,20.93,20.93,0,0,1,4.36-.62Z" transform="translate(-201.93 -66.42)"/><path class="cls-4" d="M336.46,430.27" transform="translate(-201.93 -66.42)"/><path class="cls-3" d="M425,368.59c.64,0,1.55,0,2.64,0,1.39,0,2.09,0,3,.11a24,24,0,0,1,3.05.47,20.94,20.94,0,0,1,3.53,1,19.31,19.31,0,0,1,3.63,1.93,11.21,11.21,0,0,1,2.7,2.37,10,10,0,0,1,1.52,2.76,24.64,24.64,0,0,1,2.56,0,21.28,21.28,0,0,1,3.83.4,14.92,14.92,0,0,1,3.59,1.14,16.35,16.35,0,0,1,2.66,1.6,16.15,16.15,0,0,1,4.66,5.27,17,17,0,0,1,1.19,2.5,10.91,10.91,0,0,1,.57,2,10,10,0,0,1,.17,1.6,10.09,10.09,0,0,1,3.69.82,11,11,0,0,1,2.5,1.54,12,12,0,0,1,1.69,1.67,14.26,14.26,0,0,1,1.45,2,14.47,14.47,0,0,1,1.1,2.51,23.21,23.21,0,0,1,1,4.12,25.11,25.11,0,0,1,.25,4.37,24.75,24.75,0,0,1-.33,3.35,21.93,21.93,0,0,1-1,3.72l2,0a3.59,3.59,0,0,1,1.09.16,2.58,2.58,0,0,1,.65.28,2.31,2.31,0,0,1,.59.51,2.5,2.5,0,0,1,.4.58,2.6,2.6,0,0,1,.18.47,3.67,3.67,0,0,1,.12.53,4.16,4.16,0,0,1,0,.56c0,.79,0,1.19,0,1.39,0,.69,0,3.09,0,6.79h14.49q3.87-11.43,8-23.11t8.37-22.95h19.21c0-1.31.11-6.1.11-10.82,0-.6,0-2.2-.16-4.29a23.06,23.06,0,0,0-.42-3.36,16.64,16.64,0,0,0-1.43-4.16,13.68,13.68,0,0,0-1.21-1.95,15.4,15.4,0,0,0-1.87-2,15.82,15.82,0,0,0-3.94-2.81,14.9,14.9,0,0,0-3.19-1.1,12.6,12.6,0,0,0-1.63-.28,17.41,17.41,0,0,0-1.82-.11c-.76,0-1.09,0-3.3,0h-.65l-5.11,0-10.61-.05H467.61l-14.86,0c-11.27,0-17.54,0-19.19,0l-8.48,0Z" transform="translate(-201.93 -66.42)"/><path class="cls-3" d="M479.75,434.56v17.07l28.32.08a8.63,8.63,0,0,1,1.29-2.42,9,9,0,0,1,2-2,9.74,9.74,0,0,1,2.8-1.29,10.79,10.79,0,0,1,2.89-.39,11.49,11.49,0,0,1,2.78.31,9.21,9.21,0,0,1,2.56.93,8.82,8.82,0,0,1,1.87,1.38,8.68,8.68,0,0,1,1.46,1.79,9.09,9.09,0,0,1,.93,1.91h3.09V388.49l-14,0q-3.62,10.62-7.43,21.39-4.42,12.47-8.91,24.59Z" transform="translate(-201.93 -66.42)"/><path class="cls-3" d="M479.77,459.33V478l23.15,0,7.57-15a6.75,6.75,0,0,1-1.87-1.93,6.67,6.67,0,0,1-.8-1.76Z" transform="translate(-201.93 -66.42)"/><path class="cls-3" d="M479.69,485.53q0,13.08-.05,26.15l25.16.07q7.4,11.37,14.78,22.75l9.87,0,.33-75.08-3.25,0a7.51,7.51,0,0,1-.57,1.46,7.86,7.86,0,0,1-2.59,2.89,8.65,8.65,0,0,1-2.7,1.16,11.86,11.86,0,0,1-2.72.44l-10.17,20.13Z" transform="translate(-201.93 -66.42)"/><path class="cls-3" d="M479.62,520.09l20.56.08q7.05,11.36,14.11,22.69h15.27v10.6l-.08,3.47a15.77,15.77,0,0,1-.41,2.59,17.26,17.26,0,0,1-1.71,4.15,16,16,0,0,1-2,3.19,13.61,13.61,0,0,1-4.25,3.27,16.69,16.69,0,0,1-5.54,1.77l-52.42-.21q0-10.56,0-21.13l5.72-.07a12.15,12.15,0,0,0,4.18-1.1,12,12,0,0,0,3.72-2.71,10.7,10.7,0,0,0,1.61-2.32,11.75,11.75,0,0,0,1.16-3.84,16.1,16.1,0,0,0,.12-2.93Q479.6,528.85,479.62,520.09Z" transform="translate(-201.93 -66.42)"/><path class="cls-4" d="M406.15,550.6" transform="translate(-201.93 -66.42)"/><path class="cls-3" d="M406.22,571.9q-.06-10.74-.13-21.47l48.94.06V571.9Z" transform="translate(-201.93 -66.42)"/><polygon class="cls-3" points="85.02 335.31 84.94 384.27 147.52 384.27 156.36 368.34 132.08 368.34 115.49 335.31 85.02 335.31"/><path class="cls-3" d="M286.87,458.7v19.73l50.61-.08a15.73,15.73,0,0,1,.16-2,17.76,17.76,0,0,1,1-3.63c.77-2.17,1.5-3.75,1.56-3.89a112.48,112.48,0,0,1,5.45-9.9Z" transform="translate(-201.93 -66.42)"/><path class="cls-3" d="M286.7,487q-.06,23.42-.11,46.84h37.1l17.73-22.79,24.33.12-.09-13.11-13.15,0a15.12,15.12,0,0,1-5.78-1,12.64,12.64,0,0,1-3.92-2.22,13.52,13.52,0,0,1-3-3.72,18,18,0,0,1-1.77-4.13Z" transform="translate(-201.93 -66.42)"/><path class="cls-3" d="M286.87,542.67c-.16,7.74-.19,13.48-.17,15.47a9.53,9.53,0,0,0,.33,2.48,10.59,10.59,0,0,0,1.21,2.69,17.71,17.71,0,0,0,1.82,2.54,20.24,20.24,0,0,0,1.84,2,13.73,13.73,0,0,0,2.15,1.74,12,12,0,0,0,2.83,1.29,18.13,18.13,0,0,0,4.57.91l2.53.06,94.19,0-.06-21.41-20.69-.11a15.81,15.81,0,0,1-3.9-.44,9.45,9.45,0,0,1-2.85-1.08,8.7,8.7,0,0,1-2.27-2.06,11.25,11.25,0,0,1-1.69-2.81,11.5,11.5,0,0,1-.87-3.59l0-20.9-19.71-.17q-7.26,9.61-14.53,19.21l13.92,18.11,18.69.1a10.1,10.1,0,0,1,1.12-1.49,8.49,8.49,0,0,1,1.36-1.25,8.29,8.29,0,0,1,1.94-1.06,8.7,8.7,0,0,1,2-.49,11,11,0,0,1,2-.11,13.35,13.35,0,0,1,1.57.15,8,8,0,0,1,1.84.43,7.72,7.72,0,0,1,1.44.74,9.43,9.43,0,0,1,1.45,1.14,8.68,8.68,0,0,1,1.33,1.68,9.55,9.55,0,0,1,1.35,4.62,10.05,10.05,0,0,1-.53,3.25,8.3,8.3,0,0,1-1.65,3,8.43,8.43,0,0,1-2.67,2,9.76,9.76,0,0,1-4.18,1,9.06,9.06,0,0,1-4.07-.61,8.12,8.12,0,0,1-1.9-1.1,8.5,8.5,0,0,1-1.35-1.32,11.71,11.71,0,0,1-1.57-2.39l-23.36,0-17.07-22.25Z" transform="translate(-201.93 -66.42)"/><path class="cls-4" d="M294.46,560.29" transform="translate(-201.93 -66.42)"/><path class="cls-4" d="M436.77,558.9" transform="translate(-201.93 -66.42)"/><path class="cls-3" d="M376,426.33h92.31l.3,108.86s0,.41,0,1,0,1.21,0,1.72a2.22,2.22,0,0,1-.14.67,1.54,1.54,0,0,1-.47.65,1.16,1.16,0,0,1-.62.24l-1.17,0h-1.93c-28.27,0-57,0-85.25,0a2.15,2.15,0,0,1-.72-.35,2.6,2.6,0,0,1-.93-2c.09-23.23-.06-40.15-.18-42.87a8.93,8.93,0,0,0-1.33-4.44,9,9,0,0,0-1.3-1.49,7.18,7.18,0,0,0-1.81-1.24,6.77,6.77,0,0,0-2.85-.62H354.49a5.42,5.42,0,0,1-4-1.24,4.74,4.74,0,0,1-.91-1.44,7.39,7.39,0,0,1-.06-5.88c.26-.62.53-1.23.8-1.84Q363.16,451.19,376,426.33Z" transform="translate(-201.93 -66.42)"/><path class="cls-5" d="M389.91,445.32a6.79,6.79,0,1,1-5.37,8.26A7,7,0,0,1,389.91,445.32Z" transform="translate(-201.93 -66.42)"/><path class="cls-4" d="M397.59,465.8" transform="translate(-201.93 -66.42)"/><path class="cls-3" d="M321.79,368.12a4.66,4.66,0,0,1,4.79,3.39,4.71,4.71,0,0,1-3.8,5.61,4.66,4.66,0,0,1-5.28-3.55A4.75,4.75,0,0,1,321.79,368.12Z" transform="translate(-201.93 -66.42)"/><path class="cls-6" d="M383.69,414.85h83.56l.72-2.14c.18-1.11.27-2,.33-2.75a16.72,16.72,0,0,0,.05-3,13.67,13.67,0,0,0-.49-2.58,8.07,8.07,0,0,0-.83-2.1,6.06,6.06,0,0,0-1.32-1.59,5.74,5.74,0,0,0-1.71-1,16.34,16.34,0,0,0-1.81-.5,14.34,14.34,0,0,1-1.82-.49,4.21,4.21,0,0,1-1.73-1.08,4.85,4.85,0,0,1-.91-1.95c-.24-.74-.2-.8-.53-2a13.36,13.36,0,0,0-.86-2.63,10.82,10.82,0,0,0-.76-1.28,11.49,11.49,0,0,0-1.32-1.7,10.8,10.8,0,0,0-1.65-1.38,7.89,7.89,0,0,0-1.76-1,7.49,7.49,0,0,0-2-.44,11.56,11.56,0,0,0-2.18,0c-1.28.08-1.35.17-2.14.16a5.57,5.57,0,0,1-2-.27,4.62,4.62,0,0,1-1.54-1,10.91,10.91,0,0,1-1.46-1.91c-.67-1-.66-1-1.06-1.55A9.5,9.5,0,0,0,437,379a8.34,8.34,0,0,0-1.61-1.12,8.81,8.81,0,0,0-1.7-.77,9.49,9.49,0,0,0-1.74-.36l-1.48-.08-1.2-.05c-1,0-4.28-.09-8.79-.06-.3,0-.7,0-1.17,0s-.82,0-1.35.11a10.19,10.19,0,0,0-1.44.29,10.38,10.38,0,0,0-1.24.43,8.46,8.46,0,0,0-1.77.95,7.13,7.13,0,0,0-1,.9,8.46,8.46,0,0,0-1,1.36c-.39.61-.33.62-.74,1.29a10.89,10.89,0,0,1-1.08,1.52,7,7,0,0,1-1,1,4.15,4.15,0,0,1-1.21.71,5.23,5.23,0,0,1-1.35.24c-.37,0-.85.08-1.65.11-.26,0-.75,0-1.69,0-1.22,0-1.48,0-2.39,0s-1.34,0-2,0a5.61,5.61,0,0,0-1.57.24,4.51,4.51,0,0,0-1.61,1.09,6.71,6.71,0,0,0-1.06,1.26,7.33,7.33,0,0,0-.93,2.65c-.09.41-.17,1.16-.32,2.64s-.17,1.78-.3,2.48a8.55,8.55,0,0,1-.59,2,4.86,4.86,0,0,1-.82,1.32,4.78,4.78,0,0,1-1.67,1.16,11.12,11.12,0,0,1-1.67.53,17.41,17.41,0,0,0-2.93,1,5.7,5.7,0,0,0-1.62,1.28,6.73,6.73,0,0,0-1.35,3.95,12.45,12.45,0,0,0,.52,4.67,15.78,15.78,0,0,0,.69,2Z" transform="translate(-201.93 -66.42)"/><path class="cls-2" d="M388.42,406.87c1.6,0,4.26-.07,7.71-.16l.06-4.08a2.11,2.11,0,0,1,.48-1.33,2.25,2.25,0,0,1,1.72-.76,2.15,2.15,0,0,1,1.61.73,2,2,0,0,1,.46,1.24c0,2.17,0,4.34,0,6.5a2.11,2.11,0,0,1-.25,1.12,2.14,2.14,0,0,1-.85.84,2.29,2.29,0,0,1-1.28.31c-5.3,0-9.14-.08-10.13,0a2.37,2.37,0,0,1-1.16-.22,2.26,2.26,0,0,1-.93-.88,2,2,0,0,1,.49-2.7A3.23,3.23,0,0,1,388.42,406.87Z" transform="translate(-201.93 -66.42)"/><path class="cls-2" d="M399.3,392.27l8.36,0,1,0a2.1,2.1,0,0,1,1.07.33,1.76,1.76,0,0,1,.66.77,1.54,1.54,0,0,1,.12.78l.09,4.56a1.87,1.87,0,0,1-.19.87,2,2,0,0,1-.93.87,2.56,2.56,0,0,1-1.09.25,2.35,2.35,0,0,1-1.45-.46,2.17,2.17,0,0,1-.64-.82,2.87,2.87,0,0,1-.16-1.12c0-.41,0-1,0-1.61l-7,0a2.54,2.54,0,0,1-1.76-.74,2.3,2.3,0,0,1-.55-1,2.1,2.1,0,0,1,0-1.16,2.22,2.22,0,0,1,1-1.18A2.57,2.57,0,0,1,399.3,392.27Z" transform="translate(-201.93 -66.42)"/><path class="cls-2" d="M403.16,403.61c0,1.39,0,2.52,0,3.3s0,1.73,0,3.11a5.86,5.86,0,0,0,0,1,3.62,3.62,0,0,0,.37,1.19,2.32,2.32,0,0,0,.38.54,1.74,1.74,0,0,0,1,.49h.95l4.83,0a2.17,2.17,0,0,0,1.48-.47,2.11,2.11,0,0,0,.58-.81,2,2,0,0,0,.19-.8,1.95,1.95,0,0,0-1.7-2h-4c0-1.88,0-3.76,0-5.64a2.12,2.12,0,0,0-.52-1.28,2,2,0,0,0-.94-.62,2.07,2.07,0,0,0-2.07.58A2.27,2.27,0,0,0,403.16,403.61Z" transform="translate(-201.93 -66.42)"/><path class="cls-2" d="M419.94,399.39h-4.46a2.42,2.42,0,0,0-1.57.6,2.47,2.47,0,0,0-.77,1.74,2.5,2.5,0,0,0,.8,1.87,2.46,2.46,0,0,0,1.7.58l7,0a2.17,2.17,0,0,0,1.41-.63,2.11,2.11,0,0,0,.55-1.33l0-.93v-9.33a2.28,2.28,0,0,0-.74-1.54,2.35,2.35,0,0,0-1.7-.55,2.21,2.21,0,0,0-1.79.82,1.92,1.92,0,0,0-.33,1.19Q420,395.62,419.94,399.39Z" transform="translate(-201.93 -66.42)"/><path class="cls-2" d="M417.26,382.45q5.92-.17,12-.07l1.09,0a2.44,2.44,0,0,1,1.71.95,2.34,2.34,0,0,1,0,2.84,2.39,2.39,0,0,1-1.65.89l-12,0v3.68a2.16,2.16,0,0,1-.42,1.42,2.24,2.24,0,0,1-1.67.83,2.31,2.31,0,0,1-2.06-1,2.09,2.09,0,0,1-.31-1.17q0-3.11,0-6.22a2.3,2.3,0,0,1,.35-1.23,1.71,1.71,0,0,1,.47-.54,2,2,0,0,1,1.06-.37Z" transform="translate(-201.93 -66.42)"/><path class="cls-4" d="M430.14,388.21" transform="translate(-201.93 -66.42)"/><path class="cls-2" d="M430.15,391c5.14,0,11.5,0,11.5,0l.91.06a1.42,1.42,0,0,1,.8.44,1.46,1.46,0,0,1,.36,1.1l0,6.66c0,.37,0,.74,0,1.11a2.34,2.34,0,0,1-4.29,1.14,2.2,2.2,0,0,1-.36-1.18v-5l-8.94,0a2.09,2.09,0,0,1-1.43-.41,2.18,2.18,0,0,1-.83-1.54,2.37,2.37,0,0,1,.63-1.84A2.44,2.44,0,0,1,430.15,391Z" transform="translate(-201.93 -66.42)"/><path class="cls-2" d="M417.32,408.47l6.69,0,.06-2a1.82,1.82,0,0,1,.49-1.13,2,2,0,0,1,1.35-.58,2.07,2.07,0,0,1,1.71.55,1.91,1.91,0,0,1,.49,1.27,33.59,33.59,0,0,1,0,4,2,2,0,0,1-.24,1.1,2.17,2.17,0,0,1-1.57.83l-9.33.11a2,2,0,0,1-2-2,2.21,2.21,0,0,1,.52-1.43A2.33,2.33,0,0,1,417.32,408.47Z" transform="translate(-201.93 -66.42)"/><path class="cls-2" d="M431.39,408.74c0-3.27,0-5.9,0-7.7a2.85,2.85,0,0,1,.63-2,2.52,2.52,0,0,1,1.68-.69,2.45,2.45,0,0,1,1.7.66,2.41,2.41,0,0,1,.72,1.55q0,3.59.05,7.18h3.72a2.53,2.53,0,0,1,1.65.6,2.55,2.55,0,0,1,.83,1.57,2.54,2.54,0,0,1-2.54,2.73c-2.78,0-5,0-6.38,0a2.15,2.15,0,0,1-1.57-.5,1.86,1.86,0,0,1-.49-1.24Z" transform="translate(-201.93 -66.42)"/><path class="cls-2" d="M446.66,394.19c-.06,2.65-.08,5.31-.09,8v.95a2.43,2.43,0,0,0,.37,1.55,2.57,2.57,0,0,0,2.15,1,2.63,2.63,0,0,0,1.86-1.07,2.69,2.69,0,0,0,.49-1.57q0-3.54,0-7.08h2.13a2.1,2.1,0,0,0,1-.17,2,2,0,0,0,.88-.91,2,2,0,0,0,.16-1.38,2.11,2.11,0,0,0-.86-1.24,3,3,0,0,0-1.78-.39c-.91,0-2.07,0-3.67,0a2.7,2.7,0,0,0-1.7.58,2.57,2.57,0,0,0-.57.7A2.65,2.65,0,0,0,446.66,394.19Z" transform="translate(-201.93 -66.42)"/><path class="cls-2" d="M448.16,412.56h11.17a2.6,2.6,0,0,0,1.24-.38,2.27,2.27,0,0,0,.91-.88,2.31,2.31,0,0,0,.29-1.07v-5.32a2.07,2.07,0,0,0-.38-1.41,2.11,2.11,0,0,0-1.77-.76,2.08,2.08,0,0,0-1.45.58,2,2,0,0,0-.57,1.21v3.22l-8.88,0a2.58,2.58,0,0,0-1.55.5,2.62,2.62,0,0,0-1,1.92,2.48,2.48,0,0,0,.58,1.63A2.4,2.4,0,0,0,448.16,412.56Z" transform="translate(-201.93 -66.42)"/><path class="cls-5" d="M390.6,448.33a3.62,3.62,0,1,1-2.87,4.41A3.74,3.74,0,0,1,390.6,448.33Z" transform="translate(-201.93 -66.42)"/><path class="cls-3" d="M372,556.58a4.65,4.65,0,0,1,4.79,3.38,4.72,4.72,0,0,1-3.8,5.62,4.67,4.67,0,0,1-5.28-3.55A4.74,4.74,0,0,1,372,556.58Z" transform="translate(-201.93 -66.42)"/><path class="cls-3" d="M516.91,451a4.64,4.64,0,0,1,4.79,3.38,4.72,4.72,0,0,1-3.8,5.62,4.67,4.67,0,0,1-5.28-3.55A4.75,4.75,0,0,1,516.91,451Z" transform="translate(-201.93 -66.42)"/><path class="cls-7" d="M541.77,597.17a15.78,15.78,0,0,1,11.89,6.93,16.8,16.8,0,0,1,2.31,5.07,17.75,17.75,0,0,1,.44,6.82,15.86,15.86,0,0,1-2.31,6.83,18.94,18.94,0,0,1-3.85,4.18,28.3,28.3,0,0,1-3.31,2.42,19.73,19.73,0,0,1-5,2.76,16.15,16.15,0,0,1-5.29.44c-2.81,0-4.21,0-5.83-.66s-2.78-1.72-5-3.86c-2.49-2.44-3.88-3.8-5.18-6.16a16,16,0,0,1-1.1-14.53,12.62,12.62,0,0,1,2-3.53,13.88,13.88,0,0,1,4-3.19,22.25,22.25,0,0,1,4.41-2,26.36,26.36,0,0,1,6.6-1.54A26,26,0,0,1,541.77,597.17Z" transform="translate(-201.93 -66.42)"/><path class="cls-1" d="M536.15,600.47h5.29a13.09,13.09,0,0,1,4,.88,12.87,12.87,0,0,1,3.85,2.31,12.55,12.55,0,0,1,2.65,3.41,15,15,0,0,1,1.43,4.52,11.05,11.05,0,0,1,.33,4.29,12.27,12.27,0,0,1-1.65,4,12.77,12.77,0,0,1-4.85,5.39,22.59,22.59,0,0,1-4.29,2.64,14.82,14.82,0,0,1-4.18,1.32,13.05,13.05,0,0,1-9.69-2.31,16.06,16.06,0,0,1-3.53-3.41,15.71,15.71,0,0,1-3.63-8.48,13.54,13.54,0,0,1,0-4.29,11.6,11.6,0,0,1,2.09-5c2.12-2.8,5.07-3.74,7.16-4.4A19.45,19.45,0,0,1,536.15,600.47Z" transform="translate(-201.93 -66.42)"/><path class="cls-7" d="M529.2,607.64a1.44,1.44,0,0,1,1.45.91,1.43,1.43,0,0,1-2.6,1.19A1.56,1.56,0,0,1,529.2,607.64Z" transform="translate(-201.93 -66.42)"/><path class="cls-7" d="M547.29,613.91a1.24,1.24,0,1,1-.25,2.4,1.24,1.24,0,0,1-.91-1.12A1.28,1.28,0,0,1,547.29,613.91Z" transform="translate(-201.93 -66.42)"/><path class="cls-7" d="M537,608.59a15.9,15.9,0,0,0-1.49,3.71,1.4,1.4,0,0,0,0,1.24.94.94,0,0,0,1.65.09c.48-1.22,1-2.43,1.45-3.64a1.38,1.38,0,0,0-.09-1.2,1.11,1.11,0,0,0-1.11-.53A.82.82,0,0,0,537,608.59Z" transform="translate(-201.93 -66.42)"/><path class="cls-7" d="M528.54,612.84a8.81,8.81,0,0,0,1.32,1.9,11.4,11.4,0,0,0,1.74,1.53,15.29,15.29,0,0,0,2,1.32,14.78,14.78,0,0,0,3,1.2,20.23,20.23,0,0,0,2.19.49,17.84,17.84,0,0,0,2.81.25,23.92,23.92,0,0,0,2.6,0,1.72,1.72,0,0,1,1.07,0,1.08,1.08,0,0,1,.62.58,1,1,0,0,1,0,.82c-.15.35-.53.5-1.15.66a9.89,9.89,0,0,1-2.19.37,20.68,20.68,0,0,1-3.43-.2,15.91,15.91,0,0,1-3.59-.79c-.71-.26-.42-.23-2.25-1.07-2.26-1-2.36-.89-3.1-1.43s-.34-.41-2.06-2a6.38,6.38,0,0,1-1.19-1.27,6.09,6.09,0,0,1-.71-1.59c-.27-.8-.4-1.21-.24-1.66a1.29,1.29,0,0,1,.71-.79,1.12,1.12,0,0,1,.88.08C528.06,611.52,528.15,612,528.54,612.84Z" transform="translate(-201.93 -66.42)"/><text class="cls-8" transform="translate(108.99 65.72)">B<tspan class="cls-9" x="23.65" y="0">r</tspan><tspan x="38.34" y="0">ains in Silicon</tspan></text><text class="cls-10" transform="translate(54.4 560.06)">The Boahen Bun<tspan class="cls-11" x="219.83" y="0">c</tspan><tspan x="234.9" y="0">h</tspan></text></svg>