<svg id="Layer_1" data-name="Layer 1" xmlns="http://www.w3.org/2000/svg" viewBox="0 0 267.48 245.58"><defs><style>.cls-1,.cls-4{fill:#262626;}.cls-2{fill:#be9d46;}.cls-3{fill:#fff;stroke:#000;}.cls-3,.cls-4{stroke-miterlimit:10;}.cls-4{stroke:#262626;}.cls-5{fill:#ff9c8e;}</style></defs><rect class="cls-1" width="267.48" height="245.58" rx="23.31"/><path class="cls-2" d="M415.84,360c-64.83.14-109.13.23-110.59.22-.07,0-.64,0-1.4,0s-1.63,0-2.57.15a22.34,22.34,0,0,0-2.47.45,22.7,22.7,0,0,0-5.28,2,19,19,0,0,0-3.64,3c-3.71,4.05-3.9,12.5-4,16.79-.13,9.78-.16,16.84-.17,21l30.39.05V392.62a12.66,12.66,0,0,1-3.63-3,10.69,10.69,0,0,1-2.48-4.79,10.17,10.17,0,0,1,.33-5.44,10.72,10.72,0,0,1,2.71-4.15,10.94,10.94,0,0,1,3.8-2.35,11.43,11.43,0,0,1,4-.66,10.63,10.63,0,0,1,3.9.55,10,10,0,0,1,3.2,1.84,10.64,10.64,0,0,1,3.64,7.85,9.31,9.31,0,0,1-.87,4.29,9.15,9.15,0,0,1-1.57,2.27,11.35,11.35,0,0,1-2.59,2.08,14.25,14.25,0,0,1-2.16,1.1q0,8.19,0,16.39l14.87,27.95,22.1,0c.61-1,1.16-1.85,1.63-2.59.67-1,1.17-1.78,1.55-2.34,1-1.53,1.45-2.12,1.59-2.32.39-.54.65-.88,1.17-1.55.15-.19.45-.57.88-1A4.8,4.8,0,0,1,369,426a3.55,3.55,0,0,1,1-.44,5.71,5.71,0,0,1,1.36-.14h2.35c-.06-.54-.16-1.32-.27-2.27-.15-1.27-.22-1.91-.29-2.68s-.14-1.65-.16-2.81a27.54,27.54,0,0,1,.08-3.05,13.79,13.79,0,0,1,3.38-7.39,11.56,11.56,0,0,1,7.52-3.51,17.17,17.17,0,0,1,1.15-8.07,13.49,13.49,0,0,1,7.91-7.74,17.63,17.63,0,0,1,5.55-.91,31.25,31.25,0,0,1,4.54,0,11.9,11.9,0,0,1,1.74-3.51,7.8,7.8,0,0,1,1.55-1.69,8.71,8.71,0,0,1,2.14-1.24,16.54,16.54,0,0,1,2.83-1,20.93,20.93,0,0,1,4.36-.62Z" transform="translate(-273.35 -348.05)"/><path class="cls-3" d="M335.14,440.18" transform="translate(-273.35 -348.05)"/><path class="cls-2" d="M423.68,378.5c.64,0,1.55,0,2.64,0,1.39,0,2.08,0,3,.11a24,24,0,0,1,3.05.47,19.73,19.73,0,0,1,3.52,1,19.18,19.18,0,0,1,3.64,1.93,11.15,11.15,0,0,1,2.69,2.36,9.75,9.75,0,0,1,1.52,2.76c.66,0,1.53-.07,2.56,0a21.17,21.17,0,0,1,3.84.39,15.53,15.53,0,0,1,3.59,1.15,16.41,16.41,0,0,1,2.65,1.59,16.94,16.94,0,0,1,2.84,2.63,17.19,17.19,0,0,1,1.83,2.64,16.94,16.94,0,0,1,1.19,2.51,10.91,10.91,0,0,1,.57,2,10,10,0,0,1,.17,1.59,10.25,10.25,0,0,1,3.68.83,10.89,10.89,0,0,1,2.51,1.54,12,12,0,0,1,1.69,1.67,14.26,14.26,0,0,1,1.45,2,14.47,14.47,0,0,1,1.1,2.51,23.21,23.21,0,0,1,1,4.12,25.11,25.11,0,0,1,.25,4.37,26.69,26.69,0,0,1-.33,3.35,20.57,20.57,0,0,1-1,3.71l2,0a3.88,3.88,0,0,1,1.09.17,2.58,2.58,0,0,1,.65.28,2.55,2.55,0,0,1,.59.5,2.69,2.69,0,0,1,.4.59,3.65,3.65,0,0,1,.18.47c0,.09.08.28.12.53a4,4,0,0,1,.05.56c0,.79,0,1.19,0,1.38,0,.69,0,3.1,0,6.79h14.49q3.87-11.41,8-23.1T509.25,391h19.21c0-1.31.11-6.1.11-10.82,0-.6,0-2.2-.16-4.29a23.06,23.06,0,0,0-.42-3.36,16.64,16.64,0,0,0-1.43-4.16,13.06,13.06,0,0,0-1.21-1.95,14.12,14.12,0,0,0-1.87-2,15.82,15.82,0,0,0-3.94-2.81,14.34,14.34,0,0,0-3.19-1.1,15.64,15.64,0,0,0-1.63-.29c-.59-.06-1-.08-1.82-.1s-1.09,0-3.31,0H509l-5.12,0-10.6-.05H479.46l-13.17,0-14.87,0c-11.26,0-17.53,0-19.18,0l-8.48,0Z" transform="translate(-273.35 -348.05)"/><path class="cls-2" d="M478.42,444.47v17.06l28.33.09a8.75,8.75,0,0,1,3.33-4.38,9.59,9.59,0,0,1,2.8-1.29,10.39,10.39,0,0,1,2.89-.39,12.19,12.19,0,0,1,2.78.3,9.64,9.64,0,0,1,2.56.94,9.35,9.35,0,0,1,3.33,3.16,9.26,9.26,0,0,1,.92,1.92l3.1,0V398.4l-14,0Q510.85,409,507,419.77q-4.41,12.47-8.9,24.59Z" transform="translate(-273.35 -348.05)"/><path class="cls-2" d="M478.45,469.24v18.69l23.15,0q3.78-7.5,7.57-15a6.71,6.71,0,0,1-2.67-3.68Z" transform="translate(-273.35 -348.05)"/><path class="cls-2" d="M478.37,495.44l-.06,26.15,25.17.07q7.39,11.37,14.78,22.75l9.87,0,.33-75.08-3.25,0a7.51,7.51,0,0,1-.57,1.46,8,8,0,0,1-2.59,2.89,8.65,8.65,0,0,1-2.7,1.16,11.86,11.86,0,0,1-2.72.44L506.46,495.4Z" transform="translate(-273.35 -348.05)"/><path class="cls-2" d="M478.3,530l20.56.08q7,11.34,14.11,22.69h15.27v10.6l-.08,3.47a15.52,15.52,0,0,1-.41,2.58,17.18,17.18,0,0,1-1.71,4.16,16.29,16.29,0,0,1-2,3.19,13.55,13.55,0,0,1-4.25,3.26,16.71,16.71,0,0,1-5.55,1.78l-52.41-.21q0-10.56,0-21.14l5.72-.06a12.15,12.15,0,0,0,4.18-1.1,11.93,11.93,0,0,0,3.72-2.72,11.38,11.38,0,0,0,1.61-2.31,11.75,11.75,0,0,0,1.16-3.84,16.1,16.1,0,0,0,.12-2.93Q478.28,538.75,478.3,530Z" transform="translate(-273.35 -348.05)"/><path class="cls-3" d="M404.83,560.51" transform="translate(-273.35 -348.05)"/><path class="cls-2" d="M404.9,581.81q-.06-10.74-.13-21.47l48.94.06,0,21.41Z" transform="translate(-273.35 -348.05)"/><polygon class="cls-2" points="12.28 63.59 12.2 112.55 74.79 112.55 83.62 96.61 59.34 96.61 42.75 63.59 12.28 63.59"/><path class="cls-2" d="M285.54,468.61v19.73l50.62-.08a15.59,15.59,0,0,1,.16-2,18.51,18.51,0,0,1,1-3.64c.78-2.16,1.51-3.74,1.57-3.88,1.91-4.08,4.7-8.68,5.45-9.91Z" transform="translate(-273.35 -348.05)"/><path class="cls-2" d="M285.38,496.93q-.06,23.41-.11,46.84h37.1q8.86-11.38,17.72-22.79l24.33.11-.08-13.1-13.15,0a15.32,15.32,0,0,1-5.78-1,12.64,12.64,0,0,1-3.93-2.23,13.48,13.48,0,0,1-3-3.71,17.78,17.78,0,0,1-1.77-4.13Z" transform="translate(-273.35 -348.05)"/><path class="cls-2" d="M285.54,552.58c-.15,7.74-.18,13.48-.16,15.47a9,9,0,0,0,.33,2.47,10.67,10.67,0,0,0,1.21,2.7,18.14,18.14,0,0,0,1.82,2.53,19.1,19.1,0,0,0,1.84,2,13.27,13.27,0,0,0,2.15,1.74,12.41,12.41,0,0,0,2.83,1.29,18,18,0,0,0,4.57.91l2.53,0,94.19.06-.06-21.41-20.7-.11a15.78,15.78,0,0,1-3.89-.44,9.35,9.35,0,0,1-2.85-1.08,8.7,8.7,0,0,1-2.27-2.06,11.25,11.25,0,0,1-1.69-2.81,11.5,11.5,0,0,1-.87-3.59v-20.9l-19.7-.17q-7.27,9.6-14.53,19.21l13.92,18.11,18.69.1a10.1,10.1,0,0,1,1.12-1.49,8.49,8.49,0,0,1,1.36-1.25,8.1,8.1,0,0,1,1.94-1.06,9.25,9.25,0,0,1,2-.5,12.69,12.69,0,0,1,2-.1,13.35,13.35,0,0,1,1.57.15,8,8,0,0,1,1.84.43,7.72,7.72,0,0,1,1.44.74,8.83,8.83,0,0,1,1.45,1.14A9.11,9.11,0,0,1,379,566.4a9.55,9.55,0,0,1,1.35,4.62,10.05,10.05,0,0,1-.53,3.25,8.46,8.46,0,0,1-1.65,3,8.2,8.2,0,0,1-2.67,2,9.81,9.81,0,0,1-4.18,1,9.26,9.26,0,0,1-4.08-.61,8.21,8.21,0,0,1-1.89-1.1,8.5,8.5,0,0,1-1.35-1.32,11.71,11.71,0,0,1-1.57-2.39l-23.36,0L322,552.58Z" transform="translate(-273.35 -348.05)"/><path class="cls-3" d="M293.14,570.19" transform="translate(-273.35 -348.05)"/><path class="cls-3" d="M435.45,568.8" transform="translate(-273.35 -348.05)"/><path class="cls-2" d="M374.64,436.24H467l.3,108.85s0,.42,0,1,0,1.21,0,1.72a1.74,1.74,0,0,1-.14.67,1.42,1.42,0,0,1-.46.65,1.29,1.29,0,0,1-.62.24l-1.17,0H377.65a2.07,2.07,0,0,1-.72-.35,2.61,2.61,0,0,1-.93-2c.09-23.24-.06-40.15-.18-42.87a9,9,0,0,0-1.33-4.45,9.23,9.23,0,0,0-1.3-1.48,6.84,6.84,0,0,0-1.82-1.24,6.73,6.73,0,0,0-2.84-.62H353.17a5.5,5.5,0,0,1-4-1.24,4.68,4.68,0,0,1-.9-1.44,7.13,7.13,0,0,1-.64-3,7.46,7.46,0,0,1,.57-2.89L349,486Q361.84,461.1,374.64,436.24Z" transform="translate(-273.35 -348.05)"/><path class="cls-4" d="M388.59,455.23a6.79,6.79,0,1,1-5.37,8.26A7,7,0,0,1,388.59,455.23Z" transform="translate(-273.35 -348.05)"/><path class="cls-3" d="M396.27,475.71" transform="translate(-273.35 -348.05)"/><path class="cls-2" d="M320.47,378a4.65,4.65,0,0,1,4.79,3.38,4.72,4.72,0,0,1-3.8,5.62,4.67,4.67,0,0,1-5.28-3.55A4.75,4.75,0,0,1,320.47,378Z" transform="translate(-273.35 -348.05)"/><path class="cls-5" d="M382.37,424.76h83.56c.24-.71.48-1.43.71-2.14.19-1.12.28-2.06.33-2.76a15.77,15.77,0,0,0,.06-3,13.34,13.34,0,0,0-.5-2.59,7.77,7.77,0,0,0-.82-2.09,6.06,6.06,0,0,0-1.32-1.59,5.74,5.74,0,0,0-1.71-1,14.11,14.11,0,0,0-1.82-.5,10.62,10.62,0,0,1-1.81-.5,4.17,4.17,0,0,1-1.74-1.07,5.07,5.07,0,0,1-.9-1.95c-.25-.74-.2-.8-.53-2.05a13.39,13.39,0,0,0-.86-2.62,10.82,10.82,0,0,0-.76-1.28,11,11,0,0,0-1.32-1.7,10.22,10.22,0,0,0-1.65-1.38,8.13,8.13,0,0,0-1.76-1,7.12,7.12,0,0,0-2-.44,12.34,12.34,0,0,0-2.18,0c-1.28.09-1.35.18-2.15.17a5.34,5.34,0,0,1-2-.28,4.47,4.47,0,0,1-1.54-1,10.91,10.91,0,0,1-1.46-1.91c-.67-1-.66-1-1.06-1.56a10.26,10.26,0,0,0-1.43-1.72,8.23,8.23,0,0,0-1.61-1.11,8.81,8.81,0,0,0-1.7-.77,9.49,9.49,0,0,0-1.74-.36l-1.48-.08-1.2-.06c-1,0-4.28-.08-8.79,0-.3,0-.7,0-1.17,0s-.83,0-1.35.11a13,13,0,0,0-1.44.28,11.21,11.21,0,0,0-1.24.44,8.28,8.28,0,0,0-1.78.95,6.89,6.89,0,0,0-1,.9,8,8,0,0,0-1,1.36c-.39.61-.33.62-.74,1.29a10.24,10.24,0,0,1-1.09,1.52,6.38,6.38,0,0,1-1,1,4.15,4.15,0,0,1-1.21.71,5.23,5.23,0,0,1-1.35.24c-.37,0-.85.08-1.65.11-.26,0-.75,0-1.69,0-1.22,0-1.48,0-2.4,0s-1.33,0-1.95,0a5.76,5.76,0,0,0-1.58.24,4.69,4.69,0,0,0-1.61,1.09,6.92,6.92,0,0,0-1.05,1.26,7.14,7.14,0,0,0-.93,2.65c-.09.41-.17,1.16-.32,2.64s-.17,1.77-.3,2.48a9.09,9.09,0,0,1-.59,2,5,5,0,0,1-.82,1.32,4.67,4.67,0,0,1-1.68,1.15,9.25,9.25,0,0,1-1.66.54,16.51,16.51,0,0,0-2.93,1,5.65,5.65,0,0,0-1.63,1.28,6.78,6.78,0,0,0-1.34,3.95,12.45,12.45,0,0,0,.52,4.67,15,15,0,0,0,.69,2C382,424,382.2,424.39,382.37,424.76Z" transform="translate(-273.35 -348.05)"/><path class="cls-1" d="M387.1,416.78c1.59,0,4.25-.07,7.71-.16,0-1.36,0-2.72.05-4.08a2.21,2.21,0,0,1,.49-1.33,2.25,2.25,0,0,1,1.72-.76,2,2,0,0,1,2.07,2c0,2.17,0,4.33,0,6.5a2.11,2.11,0,0,1-.25,1.12,2.14,2.14,0,0,1-.85.84,2.38,2.38,0,0,1-1.28.31c-5.3,0-9.14-.08-10.13,0a2.37,2.37,0,0,1-1.16-.22,2.15,2.15,0,0,1-.93-.89,2,2,0,0,1-.28-1.48,2.1,2.1,0,0,1,.77-1.21A3.22,3.22,0,0,1,387.1,416.78Z" transform="translate(-273.35 -348.05)"/><path class="cls-1" d="M398,402.18l8.36,0,1,0a2,2,0,0,1,1.08.33,1.82,1.82,0,0,1,.66.77,1.65,1.65,0,0,1,.12.78c0,1.52.06,3,.08,4.56a1.73,1.73,0,0,1-.18.87,2.06,2.06,0,0,1-.93.87,2.62,2.62,0,0,1-1.09.24,2.3,2.3,0,0,1-1.45-.45,2.14,2.14,0,0,1-.64-.83,2.6,2.6,0,0,1-.16-1.11c0-.41,0-1,0-1.61l-7,0a2.59,2.59,0,0,1-1.76-.74,2.26,2.26,0,0,1-.55-1,2.08,2.08,0,0,1,0-1.15,2.18,2.18,0,0,1,1-1.18A2.57,2.57,0,0,1,398,402.18Z" transform="translate(-273.35 -348.05)"/><path class="cls-1" d="M401.84,413.51c0,1.4,0,2.53,0,3.31s0,1.73,0,3.11a4.83,4.83,0,0,0,0,1,3.71,3.71,0,0,0,.37,1.2,2.26,2.26,0,0,0,.37.54,1.86,1.86,0,0,0,1,.49c.2,0,.54,0,.95,0l4.83,0a2,2,0,0,0,2.06-1.28,2,2,0,0,0,.19-.8,2,2,0,0,0-1.7-2h-4c0-1.87,0-3.75,0-5.63a2.12,2.12,0,0,0-.52-1.28,2,2,0,0,0-.95-.62,2.09,2.09,0,0,0-1.17,0,2.15,2.15,0,0,0-.89.56A2.19,2.19,0,0,0,401.84,413.51Z" transform="translate(-273.35 -348.05)"/><path class="cls-1" d="M418.62,409.3h-4.46a2.33,2.33,0,0,0-2.34,2.33,2.34,2.34,0,0,0,2.5,2.45l7,0a2.19,2.19,0,0,0,1.41-.64,2.06,2.06,0,0,0,.55-1.32l0-.93v-9.33a2.26,2.26,0,0,0-.74-1.54,2.33,2.33,0,0,0-1.71-.56,2.28,2.28,0,0,0-1.79.83,2.06,2.06,0,0,0-.33,1.18C418.71,404.27,418.66,406.78,418.62,409.3Z" transform="translate(-273.35 -348.05)"/><path class="cls-1" d="M415.94,392.36q5.93-.17,12-.07l1.1,0a2.52,2.52,0,0,1,1.71.95,2.47,2.47,0,0,1,.46,1.39,2.4,2.4,0,0,1-.5,1.46,2.49,2.49,0,0,1-1.65.89l-12,0v3.67a2.08,2.08,0,0,1-2.09,2.25,2.28,2.28,0,0,1-2.06-1,2,2,0,0,1-.31-1.17c0-2.07,0-4.15,0-6.22a2.35,2.35,0,0,1,.35-1.24,1.7,1.7,0,0,1,.47-.53,1.87,1.87,0,0,1,1.05-.37Z" transform="translate(-273.35 -348.05)"/><path class="cls-3" d="M428.82,398.11" transform="translate(-273.35 -348.05)"/><path class="cls-1" d="M428.83,400.87c5.14,0,11.5,0,11.5,0l.91.06a1.42,1.42,0,0,1,.8.44,1.46,1.46,0,0,1,.36,1.1l0,6.66c0,.37,0,.74,0,1.11a2.28,2.28,0,0,1-.6,1.36,2.39,2.39,0,0,1-1.67.83,2.34,2.34,0,0,1-2-1,2.22,2.22,0,0,1-.36-1.18v-5l-8.94,0a2.07,2.07,0,0,1-2.26-2,2.4,2.4,0,0,1,.63-1.85A2.53,2.53,0,0,1,428.83,400.87Z" transform="translate(-273.35 -348.05)"/><path class="cls-1" d="M416,418.38l6.69,0,.06-2a1.82,1.82,0,0,1,.49-1.12,2,2,0,0,1,1.35-.58,2.08,2.08,0,0,1,1.71.55,1.91,1.91,0,0,1,.49,1.26,33.79,33.79,0,0,1,0,4.05,2,2,0,0,1-.24,1.1,2.21,2.21,0,0,1-1.57.83l-9.33.11a2.06,2.06,0,0,1-1.38-.5,2.09,2.09,0,0,1-.66-1.49,2.18,2.18,0,0,1,.52-1.43A2.35,2.35,0,0,1,416,418.38Z" transform="translate(-273.35 -348.05)"/><path class="cls-1" d="M430.07,418.65c0-3.27,0-5.9,0-7.7a2.92,2.92,0,0,1,.64-2,2.4,2.4,0,0,1,4.1,1.51c0,2.4,0,4.79.05,7.19h3.72a2.46,2.46,0,0,1,2.48,2.17,2.57,2.57,0,0,1-.89,2.12,2.63,2.63,0,0,1-1.65.61c-2.78,0-5,0-6.38,0a2.15,2.15,0,0,1-1.57-.5,1.88,1.88,0,0,1-.5-1.24C430.08,420.07,430.08,419.36,430.07,418.65Z" transform="translate(-273.35 -348.05)"/><path class="cls-1" d="M445.33,404.1c-.05,2.64-.07,5.31-.08,8v1a2.43,2.43,0,0,0,.37,1.55,2.44,2.44,0,0,0,4-.07,2.73,2.73,0,0,0,.49-1.56q0-3.54,0-7.08h2.13a2.1,2.1,0,0,0,1-.17,2,2,0,0,0,.88-.91,2.06,2.06,0,0,0,.16-1.38,2.11,2.11,0,0,0-.86-1.24,2.81,2.81,0,0,0-1.78-.39c-.91,0-2.07,0-3.67,0a2.7,2.7,0,0,0-1.7.58,2.57,2.57,0,0,0-.57.7A2.7,2.7,0,0,0,445.33,404.1Z" transform="translate(-273.35 -348.05)"/><path class="cls-1" d="M446.84,422.47H458a2.6,2.6,0,0,0,1.24-.38,2.33,2.33,0,0,0,.91-.88,2.29,2.29,0,0,0,.28-1.07v-5.33a2,2,0,0,0-.37-1.4,2.11,2.11,0,0,0-1.77-.76,2,2,0,0,0-2,1.79v3.22l-8.88,0a2.49,2.49,0,0,0-2.54,2.42,2.37,2.37,0,0,0,.58,1.63A2.4,2.4,0,0,0,446.84,422.47Z" transform="translate(-273.35 -348.05)"/><path class="cls-4" d="M389.28,458.24a3.62,3.62,0,1,1-2.87,4.41A3.73,3.73,0,0,1,389.28,458.24Z" transform="translate(-273.35 -348.05)"/><path class="cls-2" d="M370.63,566.49a4.64,4.64,0,0,1,4.79,3.38,4.67,4.67,0,1,1-4.79-3.38Z" transform="translate(-273.35 -348.05)"/><path class="cls-2" d="M515.59,460.91a4.65,4.65,0,0,1,4.79,3.38,4.72,4.72,0,0,1-3.8,5.62,4.67,4.67,0,0,1-5.28-3.55A4.74,4.74,0,0,1,515.59,460.91Z" transform="translate(-273.35 -348.05)"/></svg>