<?xml version="1.0" encoding="UTF-8" standalone="no"?>
<svg
   xmlns:dc="http://purl.org/dc/elements/1.1/"
   xmlns:cc="http://creativecommons.org/ns#"
   xmlns:rdf="http://www.w3.org/1999/02/22-rdf-syntax-ns#"
   xmlns:svg="http://www.w3.org/2000/svg"
   xmlns="http://www.w3.org/2000/svg"
   xml:space="preserve"
   style="enable-background:new 0 0 450 137;"
   viewBox="0 0 450 137"
   y="0px"
   x="0px"
   id="Layer_1"
   version="1.1"><metadata
     id="metadata29"><rdf:RDF><cc:Work
         rdf:about=""><dc:format>image/svg+xml</dc:format><dc:type
           rdf:resource="http://purl.org/dc/dcmitype/StillImage" /></cc:Work></rdf:RDF></metadata><defs
     id="defs27" /><style
     id="style2"
     type="text/css">
	.st0{fill:none;}
	.st1{fill:#A90533;}
	.st2{fill:#231F20;}
	.st3{font-family:'SourceSansPro-Regular';}
	.st4{font-size:14px;}
	.st5{fill:none;stroke:#231F20;stroke-width:0.72;}
</style><g
     id="stanford-line1-3"><g
       id="g21"><path
         id="Rectangle"
         d="M 0,0 H 450 V 137 H 0 Z"
         style="fill:none" /><g
         transform="translate(110,58.729042)"
         id="SU_units_1Ln"><path
           style="fill:#a90533"
           d="m 25.3,11.9 c -0.9,0.2 -1.7,0.5 -2.5,0.9 -0.7,0.3 -1,1 -1,1.8 0,0.5 0.1,0.9 0.5,1.2 0.3,0.3 0.8,0.5 1.2,0.4 0.6,0 1.3,-0.2 1.8,-0.5 z m -2.7,6 c -3.1,0 -3.3,-2.3 -3.3,-3 -0.1,-1.4 0.8,-2.6 2.2,-3 2,-0.7 2.5,-0.8 3.8,-1.3 V 10.3 C 25.3,9.9 25.3,9.4 25.2,9 24.9,8.1 24,7.6 23.1,7.7 22.2,7.7 21.4,8.1 20.9,8.9 L 20.8,9.1 20.2,8.8 V 8.6 c 0.6,-1.5 2.2,-2.5 3.8,-2.4 1.3,-0.1 2.5,0.4 3.2,1.4 0.4,0.9 0.6,1.9 0.5,2.9 0,1 0,2.1 0,2.9 0,0.6 0,1.1 0,1.4 0,0.8 0.1,1.4 0.8,1.4 0.1,0 0.3,0 0.4,-0.1 l 0.2,-0.2 0.4,0.4 -0.1,0.2 c -0.5,0.8 -1.3,1.2 -2.2,1.3 -0.8,0.1 -1.5,-0.4 -1.7,-1.1 -0.8,0.8 -1.8,1.2 -2.9,1.2 z"
           class="st1"
           id="Shape" /><path
           style="fill:#a90533"
           d="M 3.9,17.8 C 2.6,17.8 1.4,17.6 0.2,17.3 H 0 V 16.5 C 0,15.4 0,15 0,14.6 V 14 h 0.7 v 0.2 c 0,0.5 0.2,1 0.5,1.4 0.7,0.6 1.7,0.9 2.6,0.9 C 6,16.5 7,15.7 7,13.9 7,12.4 6.1,11.8 4.8,10.9 L 4.6,10.8 3.2,9.9 C 1.3,8.6 0.4,7.6 0.4,5.7 0.4,4.7 0.8,1.5 5.5,1.5 6.7,1.5 7.8,1.6 9,1.8 H 9.2 V 2 c 0,0 0,0.6 0,1.3 0,0.7 0,1 0,1.5 V 5.2 H 8.6 V 4.8 C 8.6,4.3 8.4,3.8 8,3.4 7.3,3 6.4,2.7 5.5,2.8 3,2.8 2.7,4.1 2.7,5.1 2.7,6.4 3.4,6.9 4.9,7.9 L 6.6,9 c 1.5,1 2.8,1.9 2.8,4.3 0,4.1 -3.8,4.5 -5.5,4.5 z"
           class="st1"
           id="Path" /><path
           style="fill:#a90533"
           d="m 15.1,17.9 c -1.8,0 -2.7,-0.6 -3.1,-2 -0.1,-0.8 -0.2,-1.5 -0.2,-2.3 0,-1.8 0,-3.3 0,-4.9 V 7.9 H 10.4 V 7.4 L 10.5,7.3 C 11,7.1 11.4,6.9 11.8,6.6 12.6,6 13.2,5.2 13.6,4.3 l 0.3,-0.4 h 0.5 v 2.5 h 3.8 v 1.4 h -3.8 v 5.9 c 0,1.8 0.3,2.8 2,2.8 0.5,0 1,-0.1 1.4,-0.3 l 0.2,-0.1 0.2,0.5 -0.1,0.1 c -0.8,0.8 -1.9,1.3 -3,1.2 z"
           class="st1"
           id="Path_1_" /><path
           style="fill:#a90533"
           d="m 30.5,17.8 v -0.5 h 0.2 c 0.4,0 0.7,-0.2 1,-0.5 0.4,-0.4 0.4,-1.4 0.4,-3.3 v -3.3 c 0,-1.4 0,-2 -0.2,-2.3 -0.3,-0.3 -0.6,-0.4 -1,-0.4 H 30.8 30.6 V 6.9 h 0.3 0.1 c 0.7,0 1.3,-0.1 2,-0.2 0.4,-0.1 0.8,-0.2 1.2,-0.4 l 0.1,-0.1 0.2,0.1 v 0.9 c 0.9,-0.7 2.1,-1.1 3.3,-1.1 2,0 3.4,1 3.8,2.7 0.1,0.7 0.2,1.3 0.1,2 v 3.3 c 0,1.9 0.1,2.4 0.4,2.7 0.3,0.2 0.6,0.3 0.9,0.3 h 0.2 v 0.5 h -0.6 c -0.8,0 -1.5,-0.1 -2.2,-0.1 -0.7,0 -1.6,0 -2.6,0.1 h -0.3 v -0.5 h 0.2 c 0.3,0 0.7,-0.2 0.9,-0.4 0.3,-0.6 0.5,-1.3 0.4,-2 0,-0.1 0,-0.2 0,-0.4 0,-0.4 0,-1.3 0,-2 0,-0.9 0,-1.7 -0.1,-2.6 C 38.9,9.1 38.6,8.5 38.2,8.1 37.7,7.7 37.1,7.5 36.5,7.6 35.8,7.6 35,7.7 34.4,8.1 V 14 c 0,1.9 0.1,2.4 0.4,2.7 0.2,0.2 0.6,0.3 0.9,0.3 H 36 v 0.5 h -0.6 c -0.8,0 -1.5,-0.1 -2.2,-0.1 -0.7,0 -1.6,0 -2.6,0.1 h -0.1 z"
           class="st1"
           id="Path_2_" /><path
           style="fill:#a90533"
           d="m 44.6,17.8 v -0.5 h 0.2 c 0.4,0 0.7,-0.2 1,-0.5 0.3,-0.4 0.4,-1.3 0.4,-3.3 V 7.9 H 44.8 V 7.3 L 45,7.2 c 0.5,-0.2 0.9,-0.4 1.3,-0.7 0,-1 0,-2 0.2,-3 0.4,-2.3 2,-3.5 4.5,-3.5 1,0 2,0.3 2.8,0.9 L 53.9,1 V 1.2 L 52.8,2.8 H 52.5 L 52.4,2.7 C 52.1,1.9 51.4,1.3 50.5,1.4 50.1,1.4 49.7,1.5 49.4,1.8 48.9,2.3 48.8,3 48.8,4.5 v 2.2 h 2.5 v 1.4 h -2.5 v 6.3 c -0.1,0.8 0,1.7 0.2,2.5 0.3,0.5 1.3,0.5 1.6,0.5 h 0.3 V 18 h -0.2 c -1.2,-0.1 -2.2,-0.1 -2.8,-0.1 -0.8,0 -1.8,0 -2.8,0.1 z"
           class="st1"
           id="Path_3_" /><path
           style="fill:#a90533"
           d="m 57.8,7.5 c -0.6,0 -1.1,0.1 -1.6,0.5 -0.9,0.8 -1.4,2.2 -1.4,4.1 0,0.8 0.1,4.6 2.9,4.6 0.6,0 1.1,-0.2 1.6,-0.5 0.9,-0.8 1.4,-2.2 1.4,-4.1 0,-0.8 -0.2,-4.6 -2.9,-4.6 z M 57.6,18 c -3.5,0 -5.5,-2.2 -5.5,-5.8 0,-2.8 1.5,-6.1 5.8,-6.1 3.5,0 5.5,2.1 5.5,5.8 0,2.8 -1.5,6.1 -5.8,6.1 z"
           class="st1"
           id="Shape_1_" /><path
           style="fill:#a90533"
           d="m 64.4,17.8 v -0.6 h 0.2 c 0.4,0 0.7,-0.2 1,-0.5 0.3,-0.4 0.4,-1.3 0.4,-3.2 V 10.3 C 66.1,9.5 66,8.7 65.8,8 65.6,7.7 65.1,7.6 64.8,7.6 H 64.7 64.5 V 6.9 h 0.4 c 0.7,0 1.3,-0.1 2,-0.2 0.4,-0.1 0.8,-0.2 1.2,-0.4 l 0.1,-0.1 0.2,0.1 v 1 c 0.7,-0.7 1.6,-1 2.6,-1 0.7,0 1.4,0.2 1.9,0.6 L 73.1,7 v 0.4 l -1,1.7 H 71.7 L 71.6,9 C 71.2,8.4 70.5,8 69.8,8.1 c -0.4,0 -0.9,0.1 -1.2,0.4 v 5.7 c -0.1,0.8 0,1.7 0.2,2.5 0.3,0.5 1.3,0.5 1.6,0.5 h 0.2 v 0.6 h -0.2 c -1.2,-0.1 -2.2,-0.1 -2.8,-0.1 -0.8,0 -1.8,0 -2.8,0.1 z"
           class="st1"
           id="Path_4_" /><path
           style="fill:#a90533"
           d="m 79.6,7.5 c -2.2,0 -3.3,1.5 -3.3,4.6 0,1.2 0.4,4.2 3.6,4.2 H 80 c 0.6,0 1.2,-0.1 1.8,-0.5 V 8.3 C 81.2,7.7 80.4,7.5 79.6,7.5 Z m 2.6,10.4 -0.3,-0.1 v -1 c -0.9,0.7 -2,1.1 -3.1,1.1 -3.1,0 -5.1,-2.1 -5.1,-5.5 0,-1 0.2,-2.1 0.6,-3 1,-2.1 3.1,-3.3 5.4,-3.2 0.7,0 1.5,0.1 2.2,0.2 V 4 C 82,3.2 81.9,2.3 81.7,1.5 81.4,1.2 81.1,1.1 80.7,1.1 H 80.6 80.4 V 0.7 h 0.2 C 81.4,0.6 82.2,0.5 83,0.4 83.4,0.3 83.8,0.3 84.1,0.1 h 0.1 l 0.2,0.1 V 0.3 C 84.3,1.2 84.3,3.2 84.3,4.7 V 14 c -0.1,0.8 0,1.7 0.2,2.5 0.3,0.3 0.6,0.4 1,0.4 h 0.3 v 0.6 h -0.2 c -0.7,0 -1.5,0.1 -2.2,0.2 -0.4,0 -0.7,0.1 -1.2,0.2 z"
           class="st1"
           id="Shape_2_" /><g
           style="font-weight:normal;font-size:14px;font-family:SourceSansPro-Regular, 'Source Sans Pro';fill:#231f20"
           font-weight="normal"
           font-size="14"
           transform="translate(95.76,3.270958)"
           id="g17"><g
             id="Group"><g
               id="Brains in Silicon"
               style=""
               aria-label="Brains in Silicon"><path
                 id="path32"
                 style=""
                 d="m 2.7548828,9.1259766 v 3.7392574 h 2.2148438 q 1.1142578,0 1.6474609,-0.458007 0.5400391,-0.464844 0.5400391,-1.415039 0,-0.957032 -0.5400391,-1.4082036 Q 6.0839844,9.1259766 4.9697266,9.1259766 Z m 0,-4.1972657 v 3.0761719 h 2.0439453 q 1.0117188,0 1.5039063,-0.3759766 0.4990234,-0.3828125 0.4990234,-1.1621093 0,-0.772461 -0.4990234,-1.1552735 Q 5.8105469,4.9287109 4.7988281,4.9287109 Z M 1.3740234,3.7939453 h 3.5273438 q 1.5791015,0 2.4335937,0.65625 0.8544922,0.65625 0.8544922,1.8662109 0,0.9365235 -0.4375,1.4902344 -0.4375,0.553711 -1.2851562,0.6904297 1.0185547,0.21875 1.5791015,0.9160156 0.5673829,0.6904301 0.5673829,1.7294921 0,1.367188 -0.9296876,2.112305 Q 6.7539062,14 5.0380859,14 H 1.3740234 Z" /><path
                 id="path34"
                 style=""
                 d="m 15.353516,7.5195312 q -0.211914,-0.1230468 -0.464844,-0.1777343 -0.246094,-0.061524 -0.546875,-0.061524 -1.066406,0 -1.640625,0.6972657 -0.567383,0.6904297 -0.567383,1.9892578 V 14 H 10.869141 V 6.34375 h 1.264648 v 1.1894531 q 0.396484,-0.6972656 1.032227,-1.0322265 0.635742,-0.3417969 1.544922,-0.3417969 0.129882,0 0.287109,0.020508 0.157226,0.013672 0.348633,0.047852 z" /><path
                 id="path36"
                 style=""
                 d="m 20.166016,10.151367 q -1.524414,0 -2.112305,0.348633 -0.587891,0.348633 -0.587891,1.189453 0,0.669922 0.4375,1.066406 0.444336,0.389649 1.203125,0.389649 1.045899,0 1.674805,-0.738281 0.635742,-0.745118 0.635742,-1.975586 V 10.151367 Z M 22.674805,9.6318359 V 14 h -1.257813 v -1.162109 q -0.430664,0.697265 -1.073242,1.032226 -0.642578,0.328125 -1.572266,0.328125 -1.175781,0 -1.873047,-0.65625 -0.690429,-0.663086 -0.690429,-1.770508 0,-1.291992 0.861328,-1.9482418 0.868164,-0.65625 2.583984,-0.65625 h 1.763672 V 9.0439453 q 0,-0.868164 -0.574219,-1.3398437 -0.567382,-0.4785157 -1.599609,-0.4785157 -0.65625,0 -1.27832,0.1572266 -0.622071,0.1572266 -1.196289,0.4716797 V 6.6923828 q 0.690429,-0.2666016 1.339843,-0.3964844 0.649414,-0.1367187 1.264649,-0.1367187 1.661133,0 2.481445,0.8613281 0.820313,0.8613281 0.820313,2.6113281 z" /><path
                 id="path38"
                 style=""
                 d="m 25.272461,6.34375 h 1.257812 V 14 h -1.257812 z m 0,-2.9804687 h 1.257812 v 1.5927734 h -1.257812 z" /><path
                 id="path40"
                 style=""
                 d="M 35.519531,9.3789063 V 14 H 34.261719 V 9.4199219 q 0,-1.0869141 -0.423828,-1.6269532 -0.423829,-0.540039 -1.271485,-0.540039 -1.018554,0 -1.606445,0.649414 Q 30.37207,8.5517578 30.37207,9.6728516 V 14 H 29.107422 V 6.34375 h 1.264648 v 1.1894531 q 0.451172,-0.6904297 1.059571,-1.0322265 0.615234,-0.3417969 1.415039,-0.3417969 1.319336,0 1.996093,0.8203125 0.676758,0.8134765 0.676758,2.3994141 z" /><path
                 id="path42"
                 style=""
                 d="M 42.922852,6.5693359 V 7.7587891 Q 42.389648,7.4853516 41.81543,7.3486328 41.241211,7.2119141 40.625977,7.2119141 q -0.936524,0 -1.408204,0.2871093 -0.464843,0.2871094 -0.464843,0.8613282 0,0.4375 0.334961,0.6904297 0.334961,0.2460937 1.346679,0.4716796 l 0.430664,0.095703 q 1.339844,0.2871093 1.900391,0.8134769 0.567383,0.519531 0.567383,1.456054 0,1.066407 -0.847656,1.688477 -0.840821,0.62207 -2.317383,0.62207 -0.615235,0 -1.285157,-0.123047 -0.663085,-0.116211 -1.401367,-0.355468 v -1.298829 q 0.697266,0.362305 1.374024,0.546875 0.676758,0.177735 1.339843,0.177735 0.888672,0 1.367188,-0.300781 0.478516,-0.307618 0.478516,-0.861329 0,-0.512695 -0.348633,-0.786132 -0.341797,-0.273438 -1.510742,-0.526368 l -0.4375,-0.102539 Q 38.575195,10.322266 38.055664,9.8164063 37.536133,9.3037109 37.536133,8.4150391 q 0,-1.0800782 0.765625,-1.6679688 0.765625,-0.5878906 2.173828,-0.5878906 0.697266,0 1.3125,0.102539 0.615234,0.1025391 1.134766,0.3076172 z" /><path
                 id="path44"
                 style=""
                 d="m 49.799805,6.34375 h 1.257812 V 14 h -1.257812 z m 0,-2.9804687 h 1.257812 v 1.5927734 h -1.257812 z" /><path
                 id="path46"
                 style=""
                 d="M 60.046875,9.3789063 V 14 H 58.789062 V 9.4199219 q 0,-1.0869141 -0.423828,-1.6269532 -0.423828,-0.540039 -1.271484,-0.540039 -1.018555,0 -1.606445,0.649414 -0.587891,0.6494141 -0.587891,1.7705079 V 14 H 53.634766 V 6.34375 h 1.264648 v 1.1894531 q 0.451172,-0.6904297 1.05957,-1.0322265 0.615235,-0.3417969 1.415039,-0.3417969 1.319336,0 1.996094,0.8203125 0.676758,0.8134765 0.676758,2.3994141 z" /><path
                 id="path48"
                 style=""
                 d="M 73.199219,4.1289062 V 5.4755859 Q 72.413086,5.0996094 71.71582,4.9150391 71.018555,4.7304687 70.369141,4.7304687 q -1.12793,0 -1.743164,0.4375 -0.608399,0.4375 -0.608399,1.2441407 0,0.6767578 0.40332,1.0253906 0.410157,0.3417969 1.544922,0.5537109 l 0.833985,0.1708985 q 1.544922,0.2939453 2.276367,1.0390625 0.738281,0.7382812 0.738281,1.9824221 0,1.483398 -0.998047,2.249023 -0.991211,0.765625 -2.912109,0.765625 -0.72461,0 -1.544922,-0.164062 -0.813477,-0.164063 -1.688477,-0.485352 v -1.421875 q 0.840821,0.47168 1.647461,0.710938 0.806641,0.239257 1.585938,0.239257 1.182617,0 1.825195,-0.464843 0.642578,-0.464844 0.642578,-1.326172 0,-0.751953 -0.464843,-1.175781 -0.458008,-0.4238286 -1.510743,-0.6357426 l -0.84082,-0.1640625 q -1.544922,-0.3076172 -2.235352,-0.9638672 -0.690429,-0.65625 -0.690429,-1.8251953 0,-1.3535157 0.950195,-2.1328125 0.957031,-0.7792969 2.631836,-0.7792969 0.717773,0 1.462891,0.1298828 0.745117,0.1298828 1.524414,0.3896484 z" /><path
                 id="path50"
                 style=""
                 d="m 75.913086,6.34375 h 1.257812 V 14 h -1.257812 z m 0,-2.9804687 h 1.257812 v 1.5927734 h -1.257812 z" /><path
                 id="path52"
                 style=""
                 d="m 79.795898,3.3632813 h 1.257813 V 14 h -1.257813 z" /><path
                 id="path54"
                 style=""
                 d="m 83.678711,6.34375 h 1.257812 V 14 h -1.257812 z m 0,-2.9804687 h 1.257812 v 1.5927734 h -1.257812 z" /><path
                 id="path56"
                 style=""
                 d="m 93.071289,6.6376953 v 1.1757813 q -0.533203,-0.2939454 -1.073242,-0.4375 -0.533203,-0.1503907 -1.080078,-0.1503907 -1.223633,0 -1.900391,0.7792969 -0.676758,0.772461 -0.676758,2.1738282 0,1.401367 0.676758,2.180664 0.676758,0.772461 1.900391,0.772461 0.546875,0 1.080078,-0.143555 0.540039,-0.15039 1.073242,-0.444336 v 1.16211 q -0.526367,0.246093 -1.09375,0.36914 -0.560547,0.123047 -1.196289,0.123047 -1.729492,0 -2.748047,-1.086914 -1.018555,-1.086914 -1.018555,-2.932617 0,-1.8730469 1.025391,-2.9462891 1.032227,-1.0732422 2.823242,-1.0732422 0.581055,0 1.134766,0.1230469 0.553711,0.1162109 1.073242,0.3554687 z" /><path
                 id="path58"
                 style=""
                 d="m 98.239258,7.2255859 q -1.011719,0 -1.59961,0.7929688 -0.58789,0.7861328 -0.58789,2.1601563 0,1.374023 0.581054,2.166992 0.587891,0.786133 1.606446,0.786133 1.004883,0 1.592773,-0.792969 0.587889,-0.792969 0.587889,-2.160156 0,-1.3603516 -0.587889,-2.1533204 -0.58789,-0.7998047 -1.592773,-0.7998047 z m 0,-1.0664062 q 1.640625,0 2.577152,1.0664062 0.93652,1.0664063 0.93652,2.9531251 0,1.879883 -0.93652,2.953125 -0.936527,1.066406 -2.577152,1.066406 -1.647461,0 -2.583985,-1.066406 -0.929687,-1.073242 -0.929687,-2.953125 0,-1.8867188 0.929687,-2.9531251 0.936524,-1.0664062 2.583985,-1.0664062 z" /><path
                 id="path60"
                 style=""
                 d="M 110.19531,9.3789063 V 14 H 108.9375 V 9.4199219 q 0,-1.0869141 -0.42383,-1.6269532 -0.42383,-0.540039 -1.27148,-0.540039 -1.01856,0 -1.60645,0.649414 -0.58789,0.6494141 -0.58789,1.7705079 V 14 H 103.7832 V 6.34375 h 1.26465 v 1.1894531 q 0.45117,-0.6904297 1.05957,-1.0322265 0.61524,-0.3417969 1.41504,-0.3417969 1.31934,0 1.99609,0.8203125 0.67676,0.8134765 0.67676,2.3994141 z" /></g></g></g></g><path
         id="Path_5_"
         d="M 200.7,77.300003 V 59.299999"
         style="fill:none;stroke:#231f20;stroke-width:0.72000003" /></g></g></svg>